<svg xmlns="http://www.w3.org/2000/svg" viewBox="0 0 800 500" width="800" height="500">
  <defs>
    <linearGradient id="bg" x1="0" y1="0" x2="1" y2="1"><stop offset="0" stop-color="#0f766e"/><stop offset="1" stop-color="#1e3a8a"/></linearGradient>
  </defs>
  <rect width="800" height="500" fill="url(#bg)"/>
  <circle cx="710" cy="70" r="150" fill="#fff" opacity=".08"/>
  <circle cx="60" cy="470" r="110" fill="#fff" opacity=".06"/>
  <rect x="70" y="60" width="660" height="380" rx="16" fill="#fff"/>
  <rect x="100" y="190" width="140" height="120" rx="12" fill="#eef2ff" stroke="#c7d2fe"/>
  <text x="170" y="245" font-family="Inter,Segoe UI,Arial,sans-serif" font-size="15" font-weight="700" fill="#3730a3" text-anchor="middle">Client app</text>
  <text x="170" y="268" font-family="Inter,Segoe UI,Arial,sans-serif" font-size="12" font-weight="500" fill="#3730a3" text-anchor="middle">credentials</text>
  <path d="M246 250 L310 250" stroke="#6366f1" stroke-width="3" stroke-linecap="round" fill="none" stroke-dasharray="6 6"/>
  <circle cx="310" cy="250" r="5" fill="#6366f1"/>
  <path d="M400 130 L470 158 V248 C470 300 430 335 400 350 C370 335 330 300 330 248 V158 Z" fill="#ecfdf5" stroke="#34d399" stroke-width="3"/>
  <path d="M372 244 l20 20 l38 -42" fill="none" stroke="#059669" stroke-width="8" stroke-linecap="round" stroke-linejoin="round"/>
  <text x="400" y="385" font-family="Inter,Segoe UI,Arial,sans-serif" font-size="15" font-weight="700" fill="#065f46" text-anchor="middle">HIPAA-compliant API</text>
  <path d="M476 250 L540 250" stroke="#10b981" stroke-width="3" stroke-linecap="round" fill="none" stroke-dasharray="6 6"/>
  <circle cx="540" cy="250" r="5" fill="#10b981"/>
  <rect x="550" y="190" width="140" height="120" rx="12" fill="#f0fdf4" stroke="#bbf7d0"/>
  <text x="620" y="245" font-family="Inter,Segoe UI,Arial,sans-serif" font-size="15" font-weight="700" fill="#166534" text-anchor="middle">Pipedrive</text>
  <text x="620" y="268" font-family="Inter,Segoe UI,Arial,sans-serif" font-size="12" font-weight="500" fill="#166534" text-anchor="middle">CRM workflows</text>

</svg>
